<mxfile host="Electron" agent="Mozilla/5.0 (Windows NT 10.0; Win64; x64) AppleWebKit/537.36 (KHTML, like Gecko) draw.io/26.0.16 Chrome/132.0.6834.196 Electron/34.2.0 Safari/537.36" version="26.0.16">
  <diagram name="第 1 页" id="6_BjkiSh42dAsGXObrW5">
    <mxGraphModel dx="1342" dy="810" grid="1" gridSize="10" guides="1" tooltips="1" connect="1" arrows="1" fold="1" page="1" pageScale="1" pageWidth="827" pageHeight="1169" math="0" shadow="0">
      <root>
        <mxCell id="0" />
        <mxCell id="1" parent="0" />
        <mxCell id="pzsSTwBNp75nAyHRHG6e-3" value="" style="edgeStyle=orthogonalEdgeStyle;rounded=0;orthogonalLoop=1;jettySize=auto;html=1;" edge="1" parent="1" source="pzsSTwBNp75nAyHRHG6e-1" target="pzsSTwBNp75nAyHRHG6e-2">
          <mxGeometry relative="1" as="geometry" />
        </mxCell>
        <mxCell id="pzsSTwBNp75nAyHRHG6e-1" value="CString" style="rounded=1;whiteSpace=wrap;html=1;" vertex="1" parent="1">
          <mxGeometry x="354" y="80" width="120" height="60" as="geometry" />
        </mxCell>
        <mxCell id="pzsSTwBNp75nAyHRHG6e-5" value="" style="edgeStyle=orthogonalEdgeStyle;rounded=0;orthogonalLoop=1;jettySize=auto;html=1;" edge="1" parent="1" source="pzsSTwBNp75nAyHRHG6e-2" target="pzsSTwBNp75nAyHRHG6e-4">
          <mxGeometry relative="1" as="geometry" />
        </mxCell>
        <mxCell id="pzsSTwBNp75nAyHRHG6e-2" value="构造+拷贝构造" style="rounded=1;whiteSpace=wrap;html=1;" vertex="1" parent="1">
          <mxGeometry x="354" y="180" width="120" height="60" as="geometry" />
        </mxCell>
        <mxCell id="pzsSTwBNp75nAyHRHG6e-7" value="" style="edgeStyle=orthogonalEdgeStyle;rounded=0;orthogonalLoop=1;jettySize=auto;html=1;" edge="1" parent="1" source="pzsSTwBNp75nAyHRHG6e-4" target="pzsSTwBNp75nAyHRHG6e-6">
          <mxGeometry relative="1" as="geometry" />
        </mxCell>
        <mxCell id="pzsSTwBNp75nAyHRHG6e-4" value="重载=" style="rounded=0;whiteSpace=wrap;html=1;" vertex="1" parent="1">
          <mxGeometry x="354" y="280" width="120" height="60" as="geometry" />
        </mxCell>
        <mxCell id="pzsSTwBNp75nAyHRHG6e-10" value="" style="edgeStyle=orthogonalEdgeStyle;rounded=0;orthogonalLoop=1;jettySize=auto;html=1;" edge="1" parent="1" source="pzsSTwBNp75nAyHRHG6e-6" target="pzsSTwBNp75nAyHRHG6e-9">
          <mxGeometry relative="1" as="geometry" />
        </mxCell>
        <mxCell id="pzsSTwBNp75nAyHRHG6e-6" value="重载&amp;lt;&amp;lt;" style="rounded=0;whiteSpace=wrap;html=1;" vertex="1" parent="1">
          <mxGeometry x="354" y="370" width="120" height="60" as="geometry" />
        </mxCell>
        <mxCell id="pzsSTwBNp75nAyHRHG6e-8" value="重载+" style="rounded=0;whiteSpace=wrap;html=1;" vertex="1" parent="1">
          <mxGeometry x="354" y="460" width="120" height="60" as="geometry" />
        </mxCell>
        <mxCell id="pzsSTwBNp75nAyHRHG6e-14" value="" style="edgeStyle=orthogonalEdgeStyle;rounded=0;orthogonalLoop=1;jettySize=auto;html=1;" edge="1" parent="1" source="pzsSTwBNp75nAyHRHG6e-9" target="pzsSTwBNp75nAyHRHG6e-12">
          <mxGeometry relative="1" as="geometry" />
        </mxCell>
        <mxCell id="pzsSTwBNp75nAyHRHG6e-9" value="重载[]" style="rounded=0;whiteSpace=wrap;html=1;" vertex="1" parent="1">
          <mxGeometry x="354" y="540" width="120" height="60" as="geometry" />
        </mxCell>
        <mxCell id="pzsSTwBNp75nAyHRHG6e-11" value="获取长度" style="rounded=0;whiteSpace=wrap;html=1;" vertex="1" parent="1">
          <mxGeometry x="354" y="620" width="120" height="60" as="geometry" />
        </mxCell>
        <mxCell id="pzsSTwBNp75nAyHRHG6e-17" value="" style="edgeStyle=orthogonalEdgeStyle;rounded=0;orthogonalLoop=1;jettySize=auto;html=1;" edge="1" parent="1" source="pzsSTwBNp75nAyHRHG6e-12" target="pzsSTwBNp75nAyHRHG6e-16">
          <mxGeometry relative="1" as="geometry" />
        </mxCell>
        <mxCell id="pzsSTwBNp75nAyHRHG6e-12" value="重载()" style="rounded=0;whiteSpace=wrap;html=1;" vertex="1" parent="1">
          <mxGeometry x="354" y="700" width="120" height="60" as="geometry" />
        </mxCell>
        <mxCell id="pzsSTwBNp75nAyHRHG6e-15" value="str&lt;div&gt;&lt;br&gt;&lt;/div&gt;&lt;div&gt;&lt;br&gt;&lt;/div&gt;&lt;div&gt;length&lt;/div&gt;" style="strokeWidth=2;html=1;shape=mxgraph.flowchart.annotation_2;align=left;labelPosition=right;pointerEvents=1;" vertex="1" parent="1">
          <mxGeometry x="474" y="60" width="50" height="100" as="geometry" />
        </mxCell>
        <mxCell id="pzsSTwBNp75nAyHRHG6e-16" value="析构" style="rounded=0;whiteSpace=wrap;html=1;" vertex="1" parent="1">
          <mxGeometry x="354" y="790" width="120" height="60" as="geometry" />
        </mxCell>
      </root>
    </mxGraphModel>
  </diagram>
</mxfile>
